<svg width="32" height="32" viewBox="0 0 32 32" fill="none" xmlns="http://www.w3.org/2000/svg">
<path d="M20 7C22.76 7 25 9.24 25 12V20C25 22.76 22.76 25 20 25H12C9.24 25 7 22.76 7 20V12C7 9.24 9.24 7 12 7H16H20Z" stroke="white" stroke-width="2" stroke-linecap="round" stroke-linejoin="round"/>
<path d="M16 12C18.21 12 20 13.79 20 16C20 18.21 18.21 20 16 20C13.79 20 12 18.21 12 16C12 13.79 13.79 12 16 12Z" stroke="white" stroke-width="2" stroke-linecap="round" stroke-linejoin="round"/>
<path d="M21 12.5C21.8284 12.5 22.5 11.8284 22.5 11C22.5 10.1716 21.8284 9.5 21 9.5C20.1716 9.5 19.5 10.1716 19.5 11C19.5 11.8284 20.1716 12.5 21 12.5Z" fill="white"/>
</svg>

